<svg width="64" height="31" viewBox="0 0 64 31" fill="none" xmlns="http://www.w3.org/2000/svg">
<path d="M2.36083 28.9637C2.36083 29.5099 1.97317 29.8271 1.33881 29.8271H0.158203V27.043H1.33881C1.92031 27.043 2.2551 27.3425 2.2551 27.8535C2.2551 28.0297 2.20224 28.1883 2.06127 28.3117C2.29034 28.5055 2.36083 28.7346 2.36083 28.9637ZM0.739694 28.1002H1.37405C1.55026 28.1002 1.67361 27.9945 1.67361 27.8183C1.67361 27.6421 1.55026 27.5364 1.37405 27.5364H0.739694V28.1002ZM1.77934 28.9637C1.77934 28.7346 1.62075 28.5936 1.39167 28.5936H0.722078V29.3161H1.39167C1.63837 29.3337 1.77934 29.1927 1.77934 28.9637Z" fill="black"/>
<path d="M6.66021 27.0586L5.74392 28.6269V29.8427H5.16243V28.6269L4.22852 27.0586H4.88049L5.44436 28.0454L6.00824 27.0586H6.66021Z" fill="black"/>
<path d="M11.2246 28.4351C11.2246 27.6069 11.8237 27.0078 12.6343 27.0078C13.2334 27.0078 13.6739 27.3426 13.8325 27.7479L13.3215 27.9946C13.2158 27.7303 12.9691 27.5364 12.6343 27.5364C12.1409 27.5364 11.8061 27.9065 11.8061 28.4527C11.8061 28.999 12.1409 29.369 12.6343 29.369C12.9691 29.369 13.2158 29.1752 13.3215 28.9109L13.8325 29.1576C13.6916 29.5629 13.251 29.8977 12.6343 29.8977C11.8413 29.88 11.2246 29.2633 11.2246 28.4351Z" fill="black"/>
<path d="M16.0332 27.0586H16.6147V28.2568H17.6896V27.0586H18.2711V29.8427H17.6896V28.7678H16.6147V29.8427H16.0332V27.0586Z" fill="black"/>
<path d="M20.5078 28.4351C20.5078 27.6245 21.1422 27.0078 21.988 27.0078C22.8338 27.0078 23.4681 27.6245 23.4681 28.4351C23.4681 29.2457 22.8338 29.88 21.988 29.88C21.1422 29.88 20.5078 29.2633 20.5078 28.4351ZM22.8866 28.4351C22.8866 27.8889 22.499 27.5188 21.988 27.5188C21.477 27.5188 21.0893 27.8889 21.0893 28.4351C21.0893 28.9814 21.477 29.3514 21.988 29.3514C22.499 29.3514 22.8866 28.9814 22.8866 28.4351Z" fill="black"/>
<path d="M29.2338 27.0586L28.5466 29.8427H27.7889L27.3483 27.8692L26.9078 29.8427H26.1501L25.4629 27.0586H26.0972L26.573 29.085L27.0135 27.0586H27.7184L28.1589 29.085L28.6347 27.0586H29.2338Z" fill="black"/>
<path d="M31.3809 27.0586H32.2972C33.1958 27.0586 33.7773 27.6401 33.7773 28.4507C33.7773 29.2612 33.1958 29.8427 32.2972 29.8427H31.3809V27.0586ZM32.3148 29.3317C32.861 29.3317 33.1958 28.9793 33.1958 28.4507C33.1958 27.922 32.8434 27.5696 32.3148 27.5696H31.9624V29.3493H32.3148V29.3317Z" fill="black"/>
<path d="M36.0176 27.0586H37.8854V27.5696H36.5991V28.204H37.8149V28.715H36.5991V29.3493H37.8854V29.8603H36.0176V27.0586Z" fill="black"/>
<path d="M40.0332 28.4351C40.0332 27.6069 40.6323 27.0078 41.4429 27.0078C42.042 27.0078 42.4825 27.3426 42.6411 27.7479L42.1301 27.9946C42.0244 27.7303 41.7777 27.5364 41.4429 27.5364C40.9495 27.5364 40.6147 27.9065 40.6147 28.4527C40.6147 28.999 40.9495 29.369 41.4429 29.369C41.7777 29.369 42.0244 29.1752 42.1301 28.9109L42.6411 29.1576C42.5001 29.5629 42.0596 29.8977 41.4429 29.8977C40.6499 29.88 40.0332 29.2633 40.0332 28.4351Z" fill="black"/>
<path d="M47.1364 29.8271H46.4844L45.7619 28.5231L45.4448 28.9108V29.8271H44.8633V27.043H45.4448V28.1002L46.3258 27.043H46.9954L46.132 28.065L47.1364 29.8271Z" fill="black"/>
<path d="M64.0002 8.22656L57.0575 25.9709C56.476 27.4863 55.1192 30.7462 50.8197 30.7462C49.8858 30.7462 48.9695 30.6052 48.2999 30.2528V26.6581C48.8637 26.8343 49.6391 26.9577 50.291 26.9577C52.0532 26.9577 52.5465 25.9885 52.9342 25.1427L53.3395 24.2264L47.0664 8.24418H51.7536L55.5245 18.6053L59.2954 8.24418H64.0002V8.22656Z" fill="black"/>
<path d="M15.7163 25.161C10.712 25.161 7.08203 21.5311 7.08203 16.5267C7.08203 11.6281 10.6767 7.94531 15.4344 7.94531C20.0335 7.94531 23.6282 11.5224 23.6282 16.0862C23.6282 16.5972 23.5929 17.3197 23.4167 17.8659L23.3638 18.0421H12.2274C12.5798 19.7866 13.8837 20.8263 15.7868 20.8263C17.1789 20.8263 18.2714 20.2448 18.8705 19.2051L18.9938 18.9937L22.9586 20.8791L22.8705 21.1082C21.8308 23.5752 19.0291 25.161 15.7163 25.161ZM18.3947 14.2889C18.1304 12.8792 16.985 11.9805 15.4168 11.9805C13.8837 11.9805 12.8089 12.7911 12.3331 14.2889H18.3947Z" fill="black"/>
<path d="M30.2913 2.42578H25.375V25.1216H30.2913V2.42578Z" fill="black"/>
<path d="M4.91626 8.27734H0V24.9116H4.91626V8.27734Z" fill="black"/>
<path d="M4.59985 3.85584L13.3927 0.913131C13.6218 0.842647 13.8333 1.03648 13.798 1.26555L13.0932 5.49459C13.0755 5.60032 12.9874 5.70604 12.8817 5.74129L4.08883 8.684C3.85976 8.75448 3.64831 8.56065 3.68355 8.33158L4.38839 4.10253C4.40601 3.99681 4.49412 3.89108 4.59985 3.85584Z" fill="black"/>
<path d="M38.0072 25.1591C34.3773 25.1591 31.8223 23.1151 31.8223 20.1724C31.8223 17.7231 33.6725 16.0314 37.1614 15.309L41.9543 14.3046V13.9874C41.9543 12.9301 41.0909 12.2605 39.7517 12.2605C38.3068 12.2605 36.95 12.7363 36.5271 14.0755L36.439 14.3574L32.3509 12.6658L32.439 12.4368C33.4082 9.7055 36.298 7.92578 39.7693 7.92578C43.9631 7.92578 46.8882 10.4103 46.8882 13.9874V24.8067H42.2539V23.6966C41.1085 24.6834 39.7165 25.1591 38.0072 25.1591ZM38.0601 18.8861C37.3024 19.0623 36.8971 19.5028 36.8971 20.1195C36.8971 20.9301 37.5667 21.4059 38.6768 21.4059C40.5094 21.4059 41.9543 20.1019 41.9543 18.4455V18.005L38.0601 18.8861Z" fill="black"/>
</svg>
